<svg viewBox="0 0 689 21" fill="none" xmlns="http://www.w3.org/2000/svg"><path d="M687.251 5.53672C685.6 5.25926 684.335 4.92323 682.949 4.83691C677.629 4.51013 672.298 4.15867 666.926 4.01378C658.38 3.77948 649.816 3.65927 641.488 2.83615C640.079 2.69742 638.584 2.64807 637.117 2.61724C628.065 2.43844 619.012 2.26272 609.954 2.11782C605.066 2.03767 600.137 2.2103 595.386 1.57215C594.064 1.39335 592.465 1.4427 590.998 1.4427C576.511 1.46428 562.046 1.26079 547.588 0.955585C543.228 0.8631 538.76 0.671977 534.647 1.16215C533.56 1.603 534.762 2.35519 532.669 2.49701C530.932 2.61415 529.874 2.31207 529.253 1.76333C529.212 1.77566 529.172 1.78795 529.132 1.80337C529.023 1.57832 528.896 1.22074 528.747 1.21766C523.858 1.17758 518.964 1.16217 514.075 1.18066C513.437 1.18066 512.683 1.34403 512.195 1.50743C509.008 2.58642 504.977 2.35519 501.158 2.41993C500.801 2.4261 500.393 2.06542 499.645 1.69856C502.423 1.5845 504.718 1.48893 507.018 1.39336C505.005 1.25463 503.01 1.33787 501.089 1.23922C495.941 0.971013 490.84 1.13749 485.739 1.32246C483.829 1.39029 481.788 1.83423 480.091 1.68625C472.517 1.03578 465.029 1.7972 457.494 1.72938C447.717 1.63998 437.906 1.96677 428.111 2.087C425.914 2.11475 423.712 2.00379 421.509 1.99454C415.654 1.96988 409.799 1.95135 403.939 1.96059C401.518 1.96368 399.09 2.09007 396.669 2.07466C389.319 2.02533 381.969 1.93594 374.619 1.85579C372.428 1.83113 370.283 1.85579 368.5 2.36138C368.787 2.80222 369.052 3.20915 369.316 3.61916C368.505 3.50202 367.689 3.28315 366.895 3.2924C365.48 3.30782 364.083 3.46812 362.823 3.55444C359.717 2.07467 359.66 2.00377 355.697 1.89587C353.058 1.82496 350.377 1.94212 347.03 1.98528C347.979 2.88239 346.783 3.18451 345.063 3.4558C342.861 3.80416 341.469 3.56678 340.29 2.91013C341.072 2.73441 341.797 2.57409 342.93 2.31821C341.802 2.19182 341.158 2.0531 340.514 2.05618C333.664 2.07776 326.815 2.11167 319.965 2.16716C312.344 2.22881 304.73 2.31206 297.115 2.40454C294.924 2.43229 292.629 2.40455 291.657 3.37873C291.485 3.55137 290.536 3.68698 289.892 3.73014C287.505 3.88737 285.101 4.05696 282.685 4.11245C280.339 4.16794 277.987 4.06312 275.968 3.49588C277.032 3.01496 277.826 3.26158 278.746 3.37564C280.718 3.61611 280.747 3.58835 283.416 2.70665C272.678 2.83922 262.389 2.94095 252.106 3.0951C233.961 3.36639 215.816 3.67159 197.67 3.94905C195.462 3.98296 193.236 3.89047 191.033 3.94596C180.267 4.22342 169.512 4.5656 158.74 4.81531C150.901 4.99719 143.039 5.05885 135.195 5.19449C127.35 5.32705 119.511 5.4997 111.666 5.62301C105.277 5.72474 98.8639 5.70318 92.4916 5.86965C71.6318 6.4184 50.7317 6.49857 29.8432 6.61571C21.0151 6.66504 12.1754 6.34747 3.33572 6.19641C2.24874 6.17792 1.16175 6.15326 0 6.1286C0.833931 9.74477 6.37238 11.2739 15.6549 10.7436C18.519 10.5802 21.5154 10.6727 24.4428 10.7159C25.8921 10.7374 27.3414 11.0365 28.7505 11.0026C40.253 10.7251 51.6635 11.5452 63.2005 11.2677C68.0775 11.1506 73.0581 11.203 77.8144 10.8392C83.6174 10.3983 89.3514 10.5463 95.1429 10.5895C99.3125 10.6203 103.494 10.6511 107.658 10.5925C117.216 10.46 126.775 10.3922 136.339 10.1363C145.098 9.902 153.909 9.82183 162.703 9.58754C170.996 9.36866 179.353 9.57524 187.64 9.04191C192.874 8.7028 198.372 9.34095 203.6 8.65964C204.031 8.60415 204.624 8.6072 205.055 8.66577C210.214 9.35016 215.729 8.00606 220.877 9.03265C221.567 9.17138 222.982 9.08197 223.729 8.9155C228.146 7.92283 232.856 8.4284 237.394 8.59179C241.127 8.72435 244.917 8.73362 248.253 8.30202C251.491 7.88275 254.309 8.09854 257.397 8.28659C255.643 8.59487 253.843 8.81686 251.985 8.92476C243.755 9.39952 235.491 9.79412 227.284 10.309C218.582 10.8546 209.984 11.6654 201.23 12.0569C194.72 12.3467 189.337 13.5213 183.511 14.107C182.274 16.5979 182.297 17.4365 183.557 18.6511C185.15 20.1833 186.599 20.5255 191.246 20.544C198.878 20.5717 206.303 19.838 213.854 19.7209C221.831 19.5945 229.348 17.9759 237.584 18.8361C237.998 18.8792 238.527 18.7528 239.016 18.7374C243.416 18.5925 247.677 18.2565 251.962 17.8465C257.138 17.3471 262.475 16.9648 267.807 16.823C271.189 16.7336 274.536 16.7089 277.946 16.5394C281.316 16.3698 284.721 16.3081 288.034 15.966C289.196 15.8457 290.455 15.7964 291.669 15.7995C297.523 15.8149 303.217 15.1151 309.135 15.3463C310.757 15.411 312.465 15.1983 314.15 15.112V13.7494C312.045 15.1798 310.705 13.5243 308.238 14.0022C306.777 14.2858 304.523 14.1687 302.539 14.3999C300.416 14.6465 297.765 14.3351 295.355 14.2365C292.727 14.1286 290.375 14.0978 287.631 14.48C284.595 14.9024 280.874 14.7821 277.463 14.7575C276.192 14.7482 274.944 14.3444 272.931 13.9837C275.761 13.8449 277.676 13.7155 279.614 13.66C285.9 13.4812 292.198 13.3363 298.484 13.1513C299.272 13.1297 300.48 13.139 300.209 12.6118C296.759 12.3929 293.233 13.0033 288.178 12.4083C294.447 11.8935 299.157 11.4959 303.884 11.1259C306.007 10.9594 308.296 10.608 310.262 10.7559C314.633 11.0827 318.516 10.6943 322.386 10.1301C325.889 9.61837 329.311 9.39641 333.095 9.82184C334.843 10.0191 336.925 9.86809 338.846 9.83418C340.531 9.80644 342.228 9.75712 343.89 9.65539C348.514 9.37485 353.184 9.13437 357.348 8.2835C357.394 8.28967 357.434 8.29585 357.474 8.30202C358.032 8.46541 358.665 8.80758 359.096 8.77984C361.426 8.61645 363.686 8.22494 366.015 8.1787C368.396 8.13245 370.823 8.40066 373.233 8.52397C373.44 8.53322 373.728 8.48392 373.894 8.42842C375.177 8.00608 376.494 8.11396 377.983 8.29893C378.812 8.40375 379.887 8.34827 380.796 8.27428C387.208 7.7502 393.719 7.6022 400.275 7.59604C403.433 7.59295 406.607 7.65772 409.73 7.54365C410.599 7.51282 411.243 6.83148 412.152 7.58369C412.347 7.744 413.348 7.86116 413.98 7.86116C422.026 7.88274 429.952 7.15209 438.032 7.35248C442.65 6.65576 447.217 7.14287 451.778 7.45115C452.715 7.51281 453.584 7.71009 454.521 7.781C459.795 8.17868 469.819 7.99682 475.266 7.15212C477.572 6.79452 479.28 7.10278 480.747 7.36482C484.266 7.99064 487.924 8.22803 491.438 7.79643C495.936 7.2446 500.134 7.47888 504.459 7.86116C505.88 7.98755 507.432 8.2527 508.738 8.15096C515.105 7.65462 521.448 8.06156 527.803 8.07389C532.698 8.08314 537.747 7.80568 542.446 8.14788C548.439 8.58564 554.041 8.3205 559.849 7.97522C561.88 7.85499 564.571 7.99372 566.181 8.40374C568.499 8.99256 570.633 8.99872 573.112 8.85691C575.056 8.74592 577.034 8.58257 578.966 8.61956C583.608 8.70588 588.237 8.89085 592.873 9.04191C597.209 9.18372 601.534 9.43958 605.871 9.455C612.232 9.47658 618.581 9.13745 624.965 9.47347C627.128 9.58754 629.428 9.56905 631.585 9.44265C636.721 9.14362 641.759 9.57831 646.808 9.6893C649.718 9.75404 652.542 9.96365 655.51 9.78484C658.426 9.60912 661.405 9.65229 664.102 10.1764C666.656 10.6727 669.313 10.6974 671.958 10.4045C674.184 10.1579 676.243 10.2689 678.457 10.4138C681.275 10.5987 684.186 11.0211 686.808 10.5186C691.254 8.77984 687.625 7.16754 687.24 5.5398L687.251 5.53672ZM152.201 6.18411C152.034 6.18411 151.867 6.15018 151.695 6.13169C151.747 6.08853 151.798 6.01145 151.856 6.00837C152.017 6.00528 152.184 6.03303 152.351 6.05153C152.299 6.09777 152.247 6.18411 152.195 6.18411H152.201ZM165.527 5.66617L165.015 5.58293L165.544 5.50895L165.532 5.66617H165.527ZM196.342 5.11437C197.63 4.81842 198.608 4.59028 200.034 4.26042C200.799 4.59337 201.236 4.78449 201.777 5.01879C200.023 5.61377 198.343 5.20069 196.342 5.11129V5.11437ZM209.754 4.38374H215.752C213.287 4.98181 211.287 4.98181 209.754 4.38374ZM227.623 4.68585C227.312 4.61803 226.996 4.54711 226.685 4.47929C227.14 4.44538 227.594 4.39912 228.054 4.38987C228.244 4.38679 228.445 4.46386 228.641 4.50394C228.301 4.56559 227.962 4.62728 227.629 4.68585H227.623ZM248.143 4.28507C248.046 4.41763 247.62 4.52245 247.332 4.63652C247.189 4.51012 246.89 4.37448 246.936 4.25733C246.982 4.14327 247.378 4.04769 247.626 3.94288C247.815 4.06002 248.212 4.19258 248.143 4.28507ZM197.435 14.07C197.262 14.1162 197.02 14.1224 196.802 14.144C196.808 14.0392 196.813 13.9313 196.819 13.8264C197.032 13.848 197.245 13.8727 197.446 13.8943C197.446 13.956 197.515 14.0484 197.435 14.07ZM205.647 13.5243C205.469 13.5613 205.222 13.5582 205.003 13.5706C205.049 13.4719 205.089 13.3764 205.135 13.2777C205.337 13.3024 205.538 13.327 205.739 13.3517C205.711 13.4134 205.739 13.5058 205.647 13.5243ZM208.816 12.5039C211.088 12.1062 212.854 12.2635 215.424 12.3374C213.135 13.0311 211.393 13.1883 208.816 12.5039ZM221.36 11.7517C221.992 11.5421 222.314 11.351 222.608 11.354C223.982 11.3695 225.351 11.4434 228.33 11.5544C224.903 12.5101 223.263 12.1771 221.36 11.7517ZM236.664 11.0581C236.451 11.0581 236.238 11.0581 236.025 11.0581C236.083 10.9625 236.146 10.8669 236.204 10.7683C236.422 10.793 236.641 10.8176 236.859 10.8392C236.796 10.9101 236.733 10.9841 236.664 11.055V11.0581ZM241.426 10.4045C244.071 10.0161 246.751 9.85885 249.495 10.1486C246.918 10.8639 244.135 10.4384 241.426 10.4045ZM253.015 10.3922C252.123 10.5063 250.858 10.2504 249.736 10.1394C249.8 10.0592 249.834 9.94207 249.926 9.9359C254.815 9.58137 259.698 9.21454 264.615 8.9155C265.731 8.84768 266.961 9.01415 268.129 9.07273C268.129 9.20529 268.215 9.33166 268.117 9.35633C266.691 9.67694 265.236 9.97906 263.608 10.3243C260.198 10.2565 256.626 9.92668 253.015 10.3922ZM267.755 14.6002C267.209 14.5571 266.703 14.4369 266.185 14.3475C266.57 14.2704 266.956 14.1933 267.341 14.1163C267.726 14.1933 268.112 14.2704 268.497 14.3444C268.244 14.4338 267.939 14.6126 267.755 14.5972V14.6002ZM292.29 8.5394C289.598 8.7922 287.074 9.18988 284.508 9.22996C281.449 9.2762 278.349 9.01722 274.68 8.86616C275.795 8.67503 276.399 8.47774 276.963 8.49007C280.638 8.58255 284.209 8.6966 287.275 7.66693C287.965 7.43572 289.639 7.49737 290.818 7.5467C292.445 7.61144 292.411 8.06465 292.296 8.5394H292.29ZM299.237 3.92131C297.811 4.09395 295.902 3.77641 296.46 3.56369C297.006 3.35406 297.943 3.22458 298.766 3.17217C299.634 3.11668 300.572 3.19992 301.521 3.2215C301.273 3.83191 300.089 3.8165 299.237 3.92131ZM307.013 3.41881C308.336 3.22459 309.664 3.02728 311.781 2.71591C310.498 3.7425 308.842 3.65619 307.013 3.41881ZM318.176 3.61303C318.119 3.61303 317.998 3.42805 317.906 3.32939C318.331 3.32939 318.757 3.31706 319.177 3.32939C319.252 3.32939 319.303 3.43422 319.361 3.49279C318.964 3.53904 318.579 3.59453 318.17 3.61303H318.176ZM326.326 3.46502C328.488 3.13516 330.018 2.89779 331.554 2.66349C330.656 3.42187 329.15 3.78564 326.326 3.46502ZM355.858 8.46233C355.72 8.47158 355.45 8.27425 355.278 8.16635C355.266 8.16019 355.605 8.04613 355.703 8.05846C356.244 8.1232 356.767 8.20334 357.302 8.27733C356.825 8.34824 356.353 8.42534 355.853 8.46233H355.858ZM369.311 3.62225L369.357 3.61303C369.357 3.61303 369.339 3.61917 369.328 3.62534H369.311V3.62225ZM369.943 3.48662C370.829 3.29857 371.755 3.10127 372.853 2.87005C372.572 3.71784 370.984 3.40955 369.943 3.48662ZM393.512 3.12592C392.707 3.06426 391.936 2.95019 391.154 2.85463C391.292 2.7868 391.418 2.66657 391.568 2.66349C392.408 2.64499 393.253 2.65423 394.518 2.65423C393.926 2.93785 393.656 3.13517 393.512 3.12592ZM440.965 3.12592C440.804 3.06426 440.649 3.00261 440.494 2.94095C440.908 2.88238 441.31 2.81147 441.736 2.78064C441.851 2.77139 442.041 2.89473 442.196 2.95638C441.788 3.01187 441.374 3.07043 440.965 3.12592ZM496.057 2.02536C495.918 2.06235 495.7 2.06233 495.516 2.07774C495.527 1.98526 495.545 1.8928 495.556 1.80032C495.734 1.8219 495.913 1.84346 496.097 1.86196C496.091 1.91745 496.137 2.0007 496.057 2.02536ZM521.316 2.25657C524.255 1.63692 524.284 1.66774 529.046 1.82497C526.831 2.53094 524.353 2.66967 521.316 2.25657ZM540.082 2.42302C538.558 2.60491 537.281 2.48779 535.93 1.79415C537.655 1.76332 538.783 1.72014 539.904 1.73864C540.232 1.7448 540.79 1.92671 540.79 2.03153C540.79 2.16718 540.422 2.38603 540.082 2.42611V2.42302ZM543.74 2.26579C547.755 2.03458 550.44 1.88044 553.132 1.7263C550.768 2.39527 548.295 2.90702 543.74 2.26579ZM559.464 2.57408C557.56 2.56791 555.662 2.57408 553.736 2.57408C553.494 2.21647 553.327 1.97293 553.166 1.72938C556.933 1.80337 560.902 1.30395 564.738 2.34903C562.978 2.82379 561.161 2.58333 559.464 2.57716V2.57408ZM571.076 2.60493C575.382 2.27815 578.522 2.31514 580.496 2.71591C575.337 3.17217 574.992 3.16601 571.076 2.60493ZM584.948 3.05502C584.741 3.01494 584.637 2.90705 584.493 2.82998C584.724 2.82998 584.971 2.81765 585.184 2.83923C585.339 2.85465 585.454 2.92245 585.586 2.96869C585.356 3.0026 585.069 3.07968 584.948 3.05502ZM590.066 3.04885C589.946 3.05501 589.652 2.94094 589.664 2.88545C589.675 2.82995 589.992 2.72514 590.107 2.73439C590.498 2.77138 590.854 2.84848 591.228 2.91013C590.843 2.95946 590.463 3.02418 590.066 3.04576V3.04885ZM615.004 3.44654C614.181 3.60377 613.204 3.81647 612.364 3.78256C606.711 3.55443 601.08 3.26772 595.438 3.0026C595.438 2.92244 595.438 2.84232 595.444 2.76525C598.791 2.74059 602.144 2.66966 605.486 2.70974C607.148 2.72824 608.781 3.02727 610.443 3.05502C612.03 3.07968 613.641 2.9163 615.395 2.82998C615.211 3.15059 615.257 3.4003 614.998 3.44963L615.004 3.44654ZM626.455 3.56987C629.583 3.21226 631.182 3.23692 632.378 3.87506C630.808 3.80416 629.227 3.72092 626.455 3.56987ZM635.116 4.0076C634.495 3.97678 633.868 3.94597 633.247 3.91514H635.139C635.133 3.94597 635.122 3.97678 635.116 4.0076ZM643.622 3.95831C643.806 3.93673 643.996 3.91512 644.18 3.89046C644.237 3.94595 644.295 3.99836 644.352 4.05385C644.111 4.02303 643.869 3.98913 643.622 3.95522V3.95831Z" fill="#171614"/></svg>
